<svg width="90" height="90" viewBox="0 0 90 90" fill="none" xmlns="http://www.w3.org/2000/svg">
<g opacity="0.8">
<rect width="90" height="90" rx="30" fill="black"/>
<g clip-path="url(#clip0_4027_5161)">
<path d="M68.6262 23.8525H70.3153C70.5401 23.9157 71.3329 23.8852 71.453 23.9992C71.4822 24.2274 71.4729 24.5751 71.4729 24.8134V26.0716C71.4729 27.3654 71.4908 28.6993 71.4673 29.9877C71.0193 29.8876 70.0882 29.8949 69.6219 29.8924C66.8982 29.8775 64.2736 30.5845 61.9673 32.0476C58.8076 34.0408 56.5761 37.2145 55.7695 40.8622C54.9634 44.49 55.6233 48.2895 57.6056 51.4329C59.5956 54.585 62.7608 56.8128 66.3993 57.6229C67.8257 57.9398 69.2565 58.0064 70.7131 57.9294C70.9028 57.9193 71.2994 57.8965 71.4738 57.8615L71.4733 61.9885C71.4733 62.2909 71.4967 63.608 71.4357 63.8447C71.3046 63.9736 70.2852 63.9392 70.0822 64H68.8862C68.7853 63.9736 68.1203 63.9353 67.9657 63.9236C67.368 63.8786 66.8312 63.825 66.237 63.7268C63.8284 63.3392 61.511 62.5142 59.399 61.2929C55.4525 58.9978 52.3234 55.3125 50.6969 51.0473C50.3919 50.2266 50.1399 49.3873 49.9425 48.5346C49.7635 47.7617 49.6291 46.9795 49.5399 46.1913C49.5075 45.8813 49.49 45.5635 49.456 45.2529C49.4405 45.1108 49.4432 44.9614 49.4128 44.8226L49.4084 44.8036V43.043C49.4485 42.9304 49.507 41.9494 49.5288 41.7505C49.5683 41.3888 49.6193 41.036 49.6774 40.6729C50.0555 38.3107 50.8563 36.0361 52.0415 33.9581C54.7163 29.284 59.1564 25.8801 64.3648 24.5109C65.2895 24.2726 66.2293 24.0967 67.1776 23.9842C67.4688 23.9498 67.7594 23.9342 68.051 23.9103C68.2195 23.8965 68.4691 23.9016 68.6262 23.8525Z" fill="white"/>
</g>
<g clip-path="url(#clip1_4027_5161)">
<path d="M33.4956 23.8525H35.1802C35.419 23.9216 36.1692 23.8808 36.3198 23.9998C36.3626 24.1914 36.339 29.8782 36.3135 29.9409C36.2396 29.9839 36.0568 29.9605 35.9662 29.9496C35.3672 29.8773 34.7889 29.8822 34.1843 29.8919C32.1193 29.9249 29.999 30.3772 28.1508 31.3125C28.0317 31.3728 27.9157 31.4358 27.799 31.4975C27.1635 31.8263 26.5545 32.2037 25.9772 32.6263C23.528 34.4404 21.6172 37.1831 20.8316 40.1353C20.7698 40.3676 20.7106 40.6662 20.6404 40.8853L28.2672 40.8848C29.6105 40.8848 31.0239 40.8612 32.3613 40.8915C32.3279 42.8894 32.391 44.9224 32.353 46.9214C31.3842 46.9013 30.365 46.916 29.3928 46.916L23.9778 46.9162L21.7337 46.9168C21.4548 46.9173 20.9024 46.9378 20.6553 46.916C21.2336 50.141 23.4607 53.3364 26.0844 55.253C29.0055 57.387 32.768 58.2846 36.3528 57.8282C36.2694 58.5161 36.4205 63.7212 36.2973 63.8156C36.1061 63.9624 35.2266 63.8798 34.9485 63.9602H33.7514C33.6517 63.9315 33.1838 63.9125 33.0507 63.9001C32.5037 63.8491 31.9382 63.8193 31.395 63.7348C28.8941 63.364 26.4853 62.526 24.2942 61.2646C23.9936 61.0948 23.6486 60.854 23.3551 60.663C19.3275 58.0286 16.3828 54.0325 15.0595 49.4054C13.5986 44.2036 14.2749 38.6339 16.9382 33.933C19.6199 29.2578 24.0696 25.858 29.2852 24.4994C30.1648 24.2734 31.0582 24.1055 31.9598 23.9967C32.2682 23.9629 32.5772 23.9344 32.8866 23.9112C33.0553 23.8989 33.3421 23.9002 33.4956 23.8525Z" fill="white"/>
</g>
</g>
<defs>
<clipPath id="clip0_4027_5161">
<rect width="22.1503" height="40.1475" fill="white" transform="translate(49.4084 23.8525)"/>
</clipPath>
<clipPath id="clip1_4027_5161">
<rect width="22.1284" height="40.1077" fill="white" transform="translate(14.25 23.8525)"/>
</clipPath>
</defs>
</svg>
